<svg xmlns="http://www.w3.org/2000/svg" height="800" width="1200" viewBox="-59.99931 -20.808825 519.99402 124.85295"><path d="M0 77.2291h399.9954V7.8018H0z" fill="#fee60e"/><path d="M4.1201 73.3317H396.228V11.5183H4.12z" fill="#008350"/><path d="M32.7708 58.1341c8.7367 0 14.4482-4.4774 14.4482-16.151 0-10.2053-5.447-14.8566-14.2209-14.8566h-11.952V58.134zM29.973 34.3622h1.7005c4.7673 0 6.6186 1.7237 6.6186 8.1823 0 5.8577-2.2689 8.3539-6.4284 8.3539H29.973V34.3622m33.7752-8.0547c-8.4722 0-14.2603 6.331-14.2603 16.0653 0 10.5485 5.7116 16.578 14.2603 16.578 8.057 0 14.2975-5.9413 14.2975-16.4922 0-8.1846-4.5771-16.151-14.2975-16.151m-.0742 7.579c3.9322-.1276 5.4448 4.3498 5.4448 8.572 0 5.1223-1.5126 8.913-5.3706 8.913-4.2755 0-5.3334-4.953-5.3334-8.913 0-3.9206 1.211-8.572 5.2592-8.572m18.7192 24.2475V27.1265h8.927v23.7719h12.2536v7.2357H82.3932m25.2288 0V27.1265h8.927v23.7719h12.2536v7.2357H107.622m31.5041 0l1.023-4.09h8.8876l1.0578 4.09h8.8899l-9.7598-31.0076h-9.0754l-9.7598 31.0076zm8.3586-10.5532h-5.635l2.7606-11.11 2.8744 11.11m25.8713-.2552c4.1596 0 4.7651 1.334 4.7651 5.3822 0 2.7583.2297 4.7372.4547 5.4262h9.0406v-.9465c-1.0602 0-.9442-1.3803-.9442-5.4262 0-6.2452-1.7422-7.02-4.6165-8.224 3.1782-.993 4.5771-4.0065 4.5771-7.5814 0-6.0271-2.988-8.8295-12.0657-8.8295h-12.8592V58.134h8.9246V47.3257zm-2.7235-12.9635h4.1619c2.0786 0 3.5935 1.0347 3.5935 3.2293 0 2.1552-1.4754 2.93-4.2384 2.93h-3.517v-6.1593m27.3445 23.7719l1.0231-4.09h8.8875l1.0602 4.09h8.8898l-9.7597-31.0076H199l-9.7574 31.0076zm8.361-10.5532h-5.6374l2.763-11.11 2.8743 11.11m14.1815 10.5532V27.1265h10.7782l4.8068 19.3362 4.8022-19.3362h10.7782V58.134h-8.0175v-9.4744l.1137-4.823.4523-5.6003h-.0742l-4.9553 19.8977h-6.201l-4.9577-19.8977h-.0742l.3782 4.5656.1925 4.823V58.134h-8.0222m42.5886.0001l1.023-4.09h8.8898l1.058 4.09h8.8874l-9.7598-31.0076h-9.0754l-9.7574 31.0076zm8.3608-10.5532h-5.6373l2.7607-11.11 2.8766 11.11m62.6301 35.6544L314.0435 70.295l-9.9013-21.7699 3.394-23.6907 15.6082-18.0928L346.0185 0l22.8741 6.7416 15.6105 18.0928 3.3964 23.6907-9.906 21.7699-20.0554 12.9403h-23.8392" fill="#fee60e"/><path d="M335.2148 79.3449L317.036 67.6132l-8.978-19.7376 3.0739-21.4753 14.1513-16.397 20.7375-6.1128 20.7375 6.1129 14.1513 16.397 3.0739 21.4752-8.9757 19.7376-18.181 11.7317h-21.612" fill="#008350"/><path d="M339.386 14.5434h15.0978v49.5204h4.1155v4.6281H333.897v-4.6281h3.6584v-33.323H333.44l5.9458-16.1974m-15.3831 20.6168c-3.278.5336-6.375 1.8235-6.375 6.1733 0 4.236 3.3777 5.1037 6.375 6.1129v4.4031c-1.3594-.3062-2.0995-1.371-2.0995-2.9184h-4.6328c.0534 4.3776 3.046 6.5653 6.7323 6.7091v2.719h2.125v-2.719c3.7096-.1438 6.8345-1.6842 6.8345-6.2845 0-4.206-3.6376-5.417-6.8344-6.4818v-3.8974c1.3014-.0302 2.0693 1.0926 2.1459 2.2155h4.431c.051-4.322-3.2247-5.8369-6.577-6.0318v-1.7399h-2.125zm2.125 12.764c1.2528.2808 2.2225 1.007 2.2225 2.2434 0 1.1762-1.1762 1.8513-2.2224 1.8513zm-2.125-5.4725c-.8212-.3643-1.9208-.587-1.9208-1.9348 0-1.0625 1.2017-1.7655 1.9208-1.7098v3.6446" fill="#fee60e"/><path d="M354.3469 60.403c.0951-.3086.2227-.689.1044-.993-.044-.1183-.1415-.218-.276-.167-.2715.1044-.884.9442-1.0463 1.1808-.4501.6983-.7053 1.457-.928 2.2434.4779-.2227.972-.355 1.4894-.3782zm-3.0692 8.0639c-.0371.3062-.167.8816-.4895 1.0045-.3898.1508-.6658-.269-.7841-.5753-.3434-.8398-.2947-1.8304.0232-3.0808.355-1.4012.6704-3.1156 1.0555-5.403l-.0464-.021-1.6958 3.589-.3735-.7726 2.6354-6.556c.239-.5962.355-1.204.9975-1.4522.239-.0905.8143-.2158.9373.1067.1438.3735-.4246 1.5265-.587 1.9185-.341.8305-.6263 1.661-.6727 2.5519l.0487.0209c.5266-.805 1.8095-2.5797 2.7235-2.9324.457-.1763.8491.0835 1.0185.5243.3572.9303-.0418 2.4266-1.2945 4.8324 1.4963-.457 1.7306-.8584 2.9462-3.1133l.4176.733c-.7841 1.7029-1.842 3.5077-3.6724 4.2107-.457.1763-.849.1716-1.334.123-.2342.1507-.4685.2992-.74.4036-.239.0904-.4779.123-.7168.1577l-.3967 3.7304" fill="#fee60e"/><path d="M358.9658 56.7793c.7725-1.5798 1.1994-3.612 1.1321-4.6955-.6728.7262-1.0532 2.6238-1.1785 4.6746zm4.38.9233c-.5591 1.3247-1.4964 3.6492-2.9533 4.2083-1.2388.4756-1.9719-.624-2.357-1.624-.682-1.7793-.6542-3.9878-.0742-5.7672.7818-2.4196 1.7863-4.6166 2.3292-4.823.29-.1114.5127.269.58.4964.501 1.6564.6333 3.3175-1.6797 8.289-.0417.348.0905.8421.3318 1.2156.3016.3318.6704.58 1.1274.4037.9326-.3596 1.8212-1.944 2.2643-2.8164l.4315.4176" fill="#fee60e"/><path d="M367.0877 53.9722c.232-.4593 1.276-2.7073 1.6982-2.8697.1369-.0533.341-.0719.7493.7818.1902.3944-.1183.9605-.2992 1.3015-.3527.7006-1.0417 2.5008-.7494 3.264.1044.2715.2947.3133.566.2112.645-.2482 1.6472-1.9951 1.9998-2.596l.3805.689c-.5452 1.1623-1.5938 3.8023-2.8465 4.2826-.6287.2412-1.2017-.1416-1.429-.7331-.1973-.5104-.1926-1.0556-.1926-1.5613l-.0464-.0209c-.4408.8305-.9906 2.7931-1.9232 3.1504-.8305.3178-1.6518-.4547-1.9325-1.1831-.631-1.6448-.0116-3.8279.8004-4.9576.1786-.2436.3874-.362.675-.471.2367-.0928 1.0417-.5753 1.1716-.0417.0696.283-.2065.9349-.334 1.1576-.297.7957-.341.9883-.819 1.7167-.3827.573-.6472 1.102-.3735 1.8142.0325.0858.116.2482.2343.2041.304-.1183 1.0486-.9674 1.5706-1.9858l1.0996-2.1529" fill="#fee60e"/><path d="M371.2612 54.6079c.6403-.2065 1.2133.1763 1.7051.4918.7772-1.0184.9373-1.4105.6102-2.4127a44.8946 44.8946 0 00-.754-1.3038zm5.6257-2.5681l.4176.5776c-.638 1.4314-1.893 3.684-3.2757 4.1364-1.153.385-2.6562.2227-3.4357-.8978-.0626.1415-.1369.3062-.29.3642-.1694.065-.3526-.058-.4106-.2111-.0859-.2204.0951-.5614.1786-.7493l2.3825-4.786c-.181-.573-.0672-1.2388.5429-1.473.508-.195.6704-.0813.9024.3734.3155.6171.7911 1.0973 1.0765 1.842.5335 1.3896-.188 2.8535-1.0185 3.9322 1.1577-.2297 1.624-.9929 2.2132-1.9394l.7168-1.1692" fill="#fee60e"/><path fill="none" stroke-width="1.4523" stroke="#278555" d="M354.3469 60.403c.0951-.3086.2227-.689.1044-.993-.044-.1183-.1415-.218-.276-.167-.2715.1044-.884.9442-1.0463 1.1808-.4501.6983-.7053 1.457-.928 2.2434.4779-.2227.972-.355 1.4894-.3782z"/><path fill="none" stroke-width="1.4523" stroke="#278555" d="M351.2777 68.4669c-.0371.3062-.167.8816-.4895 1.0045-.3898.1508-.6681-.269-.7841-.573-.3434-.8421-.2947-1.8327.0232-3.0831.355-1.4012.6704-3.1156 1.0555-5.403l-.0464-.021-1.6958 3.589-.3735-.7726 2.6354-6.556c.239-.5962.355-1.204.9975-1.4522.239-.0905.8143-.2135.9373.1067.1438.3735-.4246 1.5265-.587 1.9185-.341.8305-.6263 1.661-.6727 2.5519l.0464.0209c.5289-.805 1.8095-2.5797 2.7258-2.9324.457-.1763.8491.0835 1.0185.5243.3572.9303-.0418 2.4266-1.2945 4.8347 1.4963-.4594 1.7306-.8607 2.9462-3.1156l.4176.733c-.7864 1.7029-1.842 3.5077-3.6724 4.2107-.457.1763-.849.1716-1.334.1252-.2342.1485-.4685.297-.74.4014-.239.0904-.4779.1252-.7168.1577zm7.6881-11.6853c.7725-1.5798 1.1994-3.612 1.1321-4.6954-.6728.726-1.0532 2.6238-1.1785 4.6745z"/><path fill="none" stroke-width="1.4523" stroke="#278555" d="M363.3458 57.705c-.5615 1.3246-1.4964 3.6468-2.9556 4.2082-1.2365.4756-1.9696-.624-2.3547-1.624-.682-1.7793-.6565-3.9878-.0742-5.7672.7818-2.422 1.7863-4.6165 2.3292-4.8253.2876-.109.5127.2714.58.4988.4987 1.654.631 3.3174-1.6797 8.289-.0417.3456.0905.8397.3295 1.2155.3039.3295.6704.5777 1.1297.4037.9303-.3596 1.8188-1.9464 2.262-2.8163z"/><path fill="none" stroke-width="1.4523" stroke="#278555" d="M367.0854 53.9746c.232-.4594 1.276-2.7074 1.6982-2.8698.1368-.0533.341-.0719.7493.7819.1902.3943-.1183.9604-.2993 1.3014-.3526.7006-1.0416 2.5008-.7493 3.264.1044.2715.2946.3133.566.2112.645-.2482 1.6472-1.9951 1.9998-2.596l.3805.689c-.5452 1.1623-1.5938 3.8024-2.8465 4.2826-.6287.2412-1.2017-.1415-1.429-.7331-.1973-.5104-.1926-1.0556-.1926-1.5613l-.0464-.0209c-.4408.8305-.9906 2.7932-1.9232 3.1504-.8305.3179-1.6518-.4547-1.9325-1.1831-.631-1.6448-.0116-3.8278.8004-4.9576.1786-.2436.3874-.362.675-.471.2367-.0928 1.0417-.5753 1.1716-.0417.0696.283-.2065.9349-.334 1.1576-.297.7957-.341.9883-.819 1.7167-.3828.573-.6472 1.102-.3735 1.8142.0325.0858.116.2482.2343.2041.304-.1183 1.0486-.9674 1.5706-1.9858z"/><path fill="none" stroke-width="1.4523" stroke="#278555" d="M371.2589 54.6079c.6403-.2065 1.2133.1763 1.7051.4918.7772-1.0184.9373-1.4105.6101-2.4127a44.8946 44.8946 0 00-.754-1.3038z"/><path fill="none" stroke-width="1.4523" stroke="#278555" d="M376.8846 52.0398l.4176.58c-.638 1.429-1.893 3.6816-3.2734 4.134-1.1553.3874-2.6585.225-3.438-.8955-.0627.1392-.137.304-.2877.3619-.1694.065-.355-.058-.413-.2111-.0835-.2204.0952-.5614.1787-.7493l2.3825-4.786c-.181-.573-.0673-1.2388.5452-1.473.508-.195.6681-.0813.9001.3734.3155.6194.791 1.0973 1.0764 1.8443.536 1.3896-.1879 2.8535-1.0184 3.93 1.1576-.2298 1.624-.993 2.2132-1.9372z"/><path d="M354.3469 60.403c.0951-.3086.2227-.689.1044-.993-.044-.1183-.1415-.218-.276-.167-.2715.1044-.884.9442-1.0463 1.1808-.4501.6983-.7053 1.457-.928 2.2434.4779-.2227.972-.355 1.4894-.3782zm-3.0692 8.0639c-.0371.3062-.167.8816-.4895 1.0045-.3898.1508-.6658-.269-.7841-.5753-.3434-.8398-.2947-1.8304.0232-3.0808.355-1.4012.6704-3.1156 1.0555-5.403l-.0464-.021-1.6958 3.589-.3735-.7726 2.6354-6.556c.239-.5962.355-1.204.9975-1.4522.239-.0905.8143-.2158.9373.1067.1438.3735-.4246 1.5265-.587 1.9185-.341.8305-.6263 1.661-.6727 2.5519l.0487.0209c.5266-.805 1.8095-2.5797 2.7235-2.9324.457-.1763.8491.0835 1.0185.5243.3572.9303-.0418 2.4266-1.2945 4.8324 1.4963-.457 1.7306-.8584 2.9462-3.1133l.4176.733c-.7841 1.7029-1.842 3.5077-3.6724 4.2107-.457.1763-.849.1716-1.334.123-.2342.1507-.4685.2992-.74.4036-.239.0904-.4779.123-.7168.1577l-.3967 3.7304" fill="#fee60e"/><path d="M358.9658 56.7793c.7725-1.5798 1.1994-3.612 1.1321-4.6955-.6728.7262-1.0532 2.6238-1.1785 4.6746zm4.38.9233c-.5591 1.3247-1.4964 3.6492-2.9533 4.2083-1.2388.4756-1.9719-.624-2.357-1.624-.682-1.7793-.6542-3.9878-.0742-5.7672.7818-2.4196 1.7863-4.6166 2.3292-4.823.29-.1114.5127.269.58.4964.501 1.6564.6333 3.3175-1.6797 8.289-.0417.348.0905.8421.3318 1.2156.3016.3318.6704.58 1.1274.4037.9326-.3596 1.8212-1.944 2.2643-2.8164l.4315.4176" fill="#fee60e"/><path d="M367.0877 53.9722c.232-.4593 1.276-2.7073 1.6982-2.8697.1369-.0533.341-.0719.7493.7818.1902.3944-.1183.9605-.2992 1.3015-.3527.7006-1.0417 2.5008-.7494 3.264.1044.2715.2947.3133.566.2112.645-.2482 1.6472-1.9951 1.9998-2.596l.3805.689c-.5452 1.1623-1.5938 3.8023-2.8465 4.2826-.6287.2412-1.2017-.1416-1.429-.7331-.1973-.5104-.1926-1.0556-.1926-1.5613l-.0464-.0209c-.4408.8305-.9906 2.7931-1.9232 3.1504-.8305.3178-1.6518-.4547-1.9325-1.1831-.631-1.6448-.0116-3.8279.8004-4.9576.1786-.2436.3874-.362.675-.471.2367-.0928 1.0417-.5753 1.1716-.0417.0696.283-.2065.9349-.334 1.1576-.297.7957-.341.9883-.819 1.7167-.3827.573-.6472 1.102-.3735 1.8142.0325.0858.116.2482.2343.2041.304-.1183 1.0486-.9674 1.5706-1.9858l1.0996-2.1529" fill="#fee60e"/><path d="M371.2612 54.6079c.6403-.2065 1.2133.1763 1.7051.4918.7772-1.0184.9373-1.4105.6102-2.4127a44.8946 44.8946 0 00-.754-1.3038zm5.6257-2.5681l.4176.5776c-.638 1.4314-1.893 3.684-3.2757 4.1364-1.153.385-2.6562.2227-3.4357-.8978-.0626.1415-.1369.3062-.29.3642-.1694.065-.3526-.058-.4106-.2111-.0859-.2204.0951-.5614.1786-.7493l2.3825-4.786c-.181-.573-.0672-1.2388.5429-1.473.508-.195.6704-.0813.9024.3734.3155.6171.7911 1.0973 1.0765 1.842.5335 1.3896-.188 2.8535-1.0185 3.9322 1.1577-.2297 1.624-.9929 2.2132-1.9394l.7168-1.1692" fill="#fee60e"/></svg>